<?xml version="1.0" encoding="utf-8"?>
<!-- Generator: Adobe Illustrator 19.2.1, SVG Export Plug-In . SVG Version: 6.00 Build 0)  -->
<svg version="1.1" id="图层_1" xmlns="http://www.w3.org/2000/svg" xmlns:xlink="http://www.w3.org/1999/xlink" x="0px" y="0px"
	 viewBox="0 0 512 512" enable-background="new 0 0 512 512" xml:space="preserve">
<g>
	<path fill="#FFFFFF" stroke="#00A0C6" stroke-width="15" stroke-linejoin="round" stroke-miterlimit="10" d="M33.4,13
		C23.3,13,15,21.3,15,31.4V480c0,10.1,8.3,18.4,18.4,18.4H389c10.1,0,18.4-8.3,18.4-18.4V108.7L311.6,13H33.4z"/>
	
		<path fill="#FFFFFF" stroke="#00A0C6" stroke-width="15" stroke-linecap="round" stroke-linejoin="round" stroke-miterlimit="10" d="
		M330.1,108.7h77.3L311.6,13v77.3C311.6,100.4,319.9,108.7,330.1,108.7z"/>
	<g>
		<path fill="#FFFFFF" d="M266,466v-42.2l181.4-181.2c5.6-5.6,13.1-8.6,21-8.6s15.4,3.1,20.9,8.6c11.5,11.5,11.5,30.5,0,42
			L308.2,466H266z"/>
		<path fill="#00A0C6" d="M468.6,241.4c5.9,0,11.4,2.3,15.6,6.4c8.6,8.6,8.6,22.6,0,31.1l-10.2,10.2l-13.1,13.1L312.5,450.7
			l-7.3,7.3h-7.5H274v-23.6v-7.5l7.3-7.3l148.3-148.3l13.1-13.1l10.2-10.2C457.2,243.7,462.7,241.4,468.6,241.4 M468.6,226.4
			c-9.5,0-18.9,3.6-26.2,10.8l-10.2,10.2l-13.1,13.1L270.7,408.9L259,420.6v13.7V473l0,0h38.6h13.7l11.7-11.7l148.3-148.3l13.1-13.1
			l10.2-10.2c14.5-14.5,14.5-37.9,0-52.4c0,0,0,0,0,0c0,0,0,0,0,0c0,0,0,0,0,0C487.5,230,478,226.4,468.6,226.4L468.6,226.4z"/>
	</g>
	
		<line fill="#FFFFFF" stroke="#00A0C6" stroke-width="15" stroke-linecap="round" stroke-linejoin="round" stroke-miterlimit="10" x1="74.8" y1="95.6" x2="312.4" y2="95.6"/>
	
		<line fill="#FFFFFF" stroke="#00A0C6" stroke-width="15" stroke-linecap="round" stroke-linejoin="round" stroke-miterlimit="10" x1="74.8" y1="151.9" x2="255.5" y2="151.9"/>
	
		<line fill="#FFFFFF" stroke="#00A0C6" stroke-width="15" stroke-linecap="round" stroke-linejoin="round" stroke-miterlimit="10" x1="74.8" y1="208.2" x2="302.8" y2="208.2"/>
	
		<line fill="#FFFFFF" stroke="#00A0C6" stroke-width="15" stroke-linecap="round" stroke-linejoin="round" stroke-miterlimit="10" x1="74.8" y1="264.5" x2="252" y2="264.5"/>
	
		<line fill="#FFFFFF" stroke="#00A0C6" stroke-width="15" stroke-linecap="round" stroke-linejoin="round" stroke-miterlimit="10" x1="74.8" y1="320.8" x2="318.3" y2="320.8"/>
	
		<line fill="#FFFFFF" stroke="#00A0C6" stroke-width="15" stroke-linecap="round" stroke-linejoin="round" stroke-miterlimit="10" x1="74.8" y1="377.1" x2="232" y2="377.1"/>
	
		<line fill="#FFFFFF" stroke="#00A0C6" stroke-width="15" stroke-linecap="round" stroke-linejoin="round" stroke-miterlimit="10" x1="74.8" y1="433.3" x2="262.7" y2="433.3"/>
</g>
</svg>
